<svg width="1363" height="163" viewBox="0 0 1363 163" fill="none" xmlns="http://www.w3.org/2000/svg">
<path d="M0 15C0 6.71573 6.71573 0 15 0H37V163H15C6.71573 163 0 156.284 0 148V15Z" fill="#424242"/>
<rect width="1097" height="163" transform="translate(37)" fill="#F0F0F0"/>
<path d="M101.906 53.9219L94.3945 51.2383V48.0859L104.602 52.375V54.6367L101.906 53.9219ZM94.3945 56.1719L101.918 53.4297L104.602 52.7852V55.0352L94.3945 59.3242V56.1719ZM121.781 56.5352C121.781 56.2305 121.734 55.957 121.641 55.7148C121.555 55.4648 121.391 55.2383 121.148 55.0352C120.906 54.8242 120.566 54.6172 120.129 54.4141C119.691 54.2109 119.125 54 118.43 53.7812C117.656 53.5312 116.922 53.25 116.227 52.9375C115.539 52.625 114.93 52.2617 114.398 51.8477C113.875 51.4258 113.461 50.9375 113.156 50.3828C112.859 49.8281 112.711 49.1836 112.711 48.4492C112.711 47.7383 112.867 47.0938 113.18 46.5156C113.492 45.9297 113.93 45.4297 114.492 45.0156C115.055 44.5938 115.719 44.2695 116.484 44.043C117.258 43.8164 118.105 43.7031 119.027 43.7031C120.285 43.7031 121.383 43.9297 122.32 44.3828C123.258 44.8359 123.984 45.457 124.5 46.2461C125.023 47.0352 125.285 47.9375 125.285 48.9531H121.793C121.793 48.4531 121.688 48.0156 121.477 47.6406C121.273 47.2578 120.961 46.957 120.539 46.7383C120.125 46.5195 119.602 46.4102 118.969 46.4102C118.359 46.4102 117.852 46.5039 117.445 46.6914C117.039 46.8711 116.734 47.1172 116.531 47.4297C116.328 47.7344 116.227 48.0781 116.227 48.4609C116.227 48.75 116.297 49.0117 116.438 49.2461C116.586 49.4805 116.805 49.6992 117.094 49.9023C117.383 50.1055 117.738 50.2969 118.16 50.4766C118.582 50.6562 119.07 50.832 119.625 51.0039C120.555 51.2852 121.371 51.6016 122.074 51.9531C122.785 52.3047 123.379 52.6992 123.855 53.1367C124.332 53.5742 124.691 54.0703 124.934 54.625C125.176 55.1797 125.297 55.8086 125.297 56.5117C125.297 57.2539 125.152 57.918 124.863 58.5039C124.574 59.0898 124.156 59.5859 123.609 59.9922C123.062 60.3984 122.41 60.707 121.652 60.918C120.895 61.1289 120.047 61.2344 119.109 61.2344C118.266 61.2344 117.434 61.125 116.613 60.9062C115.793 60.6797 115.047 60.3398 114.375 59.8867C113.711 59.4336 113.18 58.8555 112.781 58.1523C112.383 57.4492 112.184 56.6172 112.184 55.6562H115.711C115.711 56.1875 115.793 56.6367 115.957 57.0039C116.121 57.3711 116.352 57.668 116.648 57.8945C116.953 58.1211 117.312 58.2852 117.727 58.3867C118.148 58.4883 118.609 58.5391 119.109 58.5391C119.719 58.5391 120.219 58.4531 120.609 58.2812C121.008 58.1094 121.301 57.8711 121.488 57.5664C121.684 57.2617 121.781 56.918 121.781 56.5352ZM130.852 50.9453V61H127.465V48.3203H130.641L130.852 50.9453ZM130.383 54.2148H129.445C129.445 53.332 129.551 52.5195 129.762 51.7773C129.98 51.0273 130.297 50.3789 130.711 49.832C131.133 49.2773 131.652 48.8477 132.27 48.543C132.887 48.2383 133.602 48.0859 134.414 48.0859C134.977 48.0859 135.492 48.1719 135.961 48.3438C136.43 48.5078 136.832 48.7695 137.168 49.1289C137.512 49.4805 137.777 49.9414 137.965 50.5117C138.152 51.0742 138.246 51.75 138.246 52.5391V61H134.871V52.9141C134.871 52.3359 134.793 51.8906 134.637 51.5781C134.48 51.2656 134.258 51.0469 133.969 50.9219C133.688 50.7969 133.348 50.7344 132.949 50.7344C132.512 50.7344 132.129 50.8242 131.801 51.0039C131.48 51.1836 131.215 51.4336 131.004 51.7539C130.793 52.0664 130.637 52.4336 130.535 52.8555C130.434 53.2773 130.383 53.7305 130.383 54.2148ZM137.93 53.8281L136.723 53.9805C136.723 53.1523 136.824 52.3828 137.027 51.6719C137.238 50.9609 137.547 50.3359 137.953 49.7969C138.367 49.2578 138.879 48.8398 139.488 48.543C140.098 48.2383 140.801 48.0859 141.598 48.0859C142.207 48.0859 142.762 48.1758 143.262 48.3555C143.762 48.5273 144.188 48.8047 144.539 49.1875C144.898 49.5625 145.172 50.0547 145.359 50.6641C145.555 51.2734 145.652 52.0195 145.652 52.9023V61H142.266V52.9023C142.266 52.3164 142.188 51.8711 142.031 51.5664C141.883 51.2539 141.664 51.0391 141.375 50.9219C141.094 50.7969 140.758 50.7344 140.367 50.7344C139.961 50.7344 139.605 50.8164 139.301 50.9805C138.996 51.1367 138.742 51.3555 138.539 51.6367C138.336 51.918 138.184 52.2461 138.082 52.6211C137.98 52.9883 137.93 53.3906 137.93 53.8281ZM155.109 58.1406V52.4922C155.109 52.0859 155.043 51.7383 154.91 51.4492C154.777 51.1523 154.57 50.9219 154.289 50.7578C154.016 50.5938 153.66 50.5117 153.223 50.5117C152.848 50.5117 152.523 50.5781 152.25 50.7109C151.977 50.8359 151.766 51.0195 151.617 51.2617C151.469 51.4961 151.395 51.7734 151.395 52.0938H148.02C148.02 51.5547 148.145 51.043 148.395 50.5586C148.645 50.0742 149.008 49.6484 149.484 49.2812C149.961 48.9062 150.527 48.6133 151.184 48.4023C151.848 48.1914 152.59 48.0859 153.41 48.0859C154.395 48.0859 155.27 48.25 156.035 48.5781C156.801 48.9062 157.402 49.3984 157.84 50.0547C158.285 50.7109 158.508 51.5312 158.508 52.5156V57.9414C158.508 58.6367 158.551 59.207 158.637 59.6523C158.723 60.0898 158.848 60.4727 159.012 60.8008V61H155.602C155.438 60.6562 155.312 60.2266 155.227 59.7109C155.148 59.1875 155.109 58.6641 155.109 58.1406ZM155.555 53.2773L155.578 55.1875H153.691C153.246 55.1875 152.859 55.2383 152.531 55.3398C152.203 55.4414 151.934 55.5859 151.723 55.7734C151.512 55.9531 151.355 56.1641 151.254 56.4062C151.16 56.6484 151.113 56.9141 151.113 57.2031C151.113 57.4922 151.18 57.7539 151.312 57.9883C151.445 58.2148 151.637 58.3945 151.887 58.5273C152.137 58.6523 152.43 58.7148 152.766 58.7148C153.273 58.7148 153.715 58.6133 154.09 58.4102C154.465 58.207 154.754 57.957 154.957 57.6602C155.168 57.3633 155.277 57.082 155.285 56.8164L156.176 58.2461C156.051 58.5664 155.879 58.8984 155.66 59.2422C155.449 59.5859 155.18 59.9102 154.852 60.2148C154.523 60.5117 154.129 60.7578 153.668 60.9531C153.207 61.1406 152.66 61.2344 152.027 61.2344C151.223 61.2344 150.492 61.0742 149.836 60.7539C149.188 60.4258 148.672 59.9766 148.289 59.4062C147.914 58.8281 147.727 58.1719 147.727 57.4375C147.727 56.7734 147.852 56.1836 148.102 55.668C148.352 55.1523 148.719 54.7188 149.203 54.3672C149.695 54.0078 150.309 53.7383 151.043 53.5586C151.777 53.3711 152.629 53.2773 153.598 53.2773H155.555ZM164.484 51.0859V61H161.109V48.3203H164.285L164.484 51.0859ZM168.305 48.2383L168.246 51.3672C168.082 51.3438 167.883 51.3242 167.648 51.3086C167.422 51.2852 167.215 51.2734 167.027 51.2734C166.551 51.2734 166.137 51.3359 165.785 51.4609C165.441 51.5781 165.152 51.7539 164.918 51.9883C164.691 52.2227 164.52 52.5078 164.402 52.8438C164.293 53.1797 164.23 53.5625 164.215 53.9922L163.535 53.7812C163.535 52.9609 163.617 52.207 163.781 51.5195C163.945 50.8242 164.184 50.2188 164.496 49.7031C164.816 49.1875 165.207 48.7891 165.668 48.5078C166.129 48.2266 166.656 48.0859 167.25 48.0859C167.438 48.0859 167.629 48.1016 167.824 48.1328C168.02 48.1562 168.18 48.1914 168.305 48.2383ZM176.695 48.3203V50.7109H169.312V48.3203H176.695ZM171.141 45.1914H174.516V57.1797C174.516 57.5469 174.562 57.8281 174.656 58.0234C174.758 58.2188 174.906 58.3555 175.102 58.4336C175.297 58.5039 175.543 58.5391 175.84 58.5391C176.051 58.5391 176.238 58.5312 176.402 58.5156C176.574 58.4922 176.719 58.4688 176.836 58.4453L176.848 60.9297C176.559 61.0234 176.246 61.0977 175.91 61.1523C175.574 61.207 175.203 61.2344 174.797 61.2344C174.055 61.2344 173.406 61.1133 172.852 60.8711C172.305 60.6211 171.883 60.2227 171.586 59.6758C171.289 59.1289 171.141 58.4102 171.141 57.5195V45.1914ZM182.18 48.3203V61H178.793V48.3203H182.18ZM178.582 45.0156C178.582 44.5234 178.754 44.1172 179.098 43.7969C179.441 43.4766 179.902 43.3164 180.48 43.3164C181.051 43.3164 181.508 43.4766 181.852 43.7969C182.203 44.1172 182.379 44.5234 182.379 45.0156C182.379 45.5078 182.203 45.9141 181.852 46.2344C181.508 46.5547 181.051 46.7148 180.48 46.7148C179.902 46.7148 179.441 46.5547 179.098 46.2344C178.754 45.9141 178.582 45.5078 178.582 45.0156ZM190.418 61H186.703L186.727 58.2578H190.418C191.34 58.2578 192.117 58.0508 192.75 57.6367C193.383 57.2148 193.859 56.6016 194.18 55.7969C194.508 54.9922 194.672 54.0195 194.672 52.8789V52.0469C194.672 51.1719 194.578 50.4023 194.391 49.7383C194.211 49.0742 193.941 48.5156 193.582 48.0625C193.223 47.6094 192.781 47.2695 192.258 47.043C191.734 46.8086 191.133 46.6914 190.453 46.6914H186.633V43.9375H190.453C191.594 43.9375 192.637 44.1328 193.582 44.5234C194.535 44.9062 195.359 45.457 196.055 46.1758C196.75 46.8945 197.285 47.7539 197.66 48.7539C198.043 49.7461 198.234 50.8516 198.234 52.0703V52.8789C198.234 54.0898 198.043 55.1953 197.66 56.1953C197.285 57.1953 196.75 58.0547 196.055 58.7734C195.367 59.4844 194.543 60.0352 193.582 60.4258C192.629 60.8086 191.574 61 190.418 61ZM188.695 43.9375V61H185.18V43.9375H188.695ZM200.039 54.7891V54.543C200.039 53.6133 200.172 52.7578 200.438 51.9766C200.703 51.1875 201.09 50.5039 201.598 49.9258C202.105 49.3477 202.73 48.8984 203.473 48.5781C204.215 48.25 205.066 48.0859 206.027 48.0859C206.988 48.0859 207.844 48.25 208.594 48.5781C209.344 48.8984 209.973 49.3477 210.48 49.9258C210.996 50.5039 211.387 51.1875 211.652 51.9766C211.918 52.7578 212.051 53.6133 212.051 54.543V54.7891C212.051 55.7109 211.918 56.5664 211.652 57.3555C211.387 58.1367 210.996 58.8203 210.48 59.4062C209.973 59.9844 209.348 60.4336 208.605 60.7539C207.863 61.0742 207.012 61.2344 206.051 61.2344C205.09 61.2344 204.234 61.0742 203.484 60.7539C202.742 60.4336 202.113 59.9844 201.598 59.4062C201.09 58.8203 200.703 58.1367 200.438 57.3555C200.172 56.5664 200.039 55.7109 200.039 54.7891ZM203.414 54.543V54.7891C203.414 55.3203 203.461 55.8164 203.555 56.2773C203.648 56.7383 203.797 57.1445 204 57.4961C204.211 57.8398 204.484 58.1094 204.82 58.3047C205.156 58.5 205.566 58.5977 206.051 58.5977C206.52 58.5977 206.922 58.5 207.258 58.3047C207.594 58.1094 207.863 57.8398 208.066 57.4961C208.27 57.1445 208.418 56.7383 208.512 56.2773C208.613 55.8164 208.664 55.3203 208.664 54.7891V54.543C208.664 54.0273 208.613 53.543 208.512 53.0898C208.418 52.6289 208.266 52.2227 208.055 51.8711C207.852 51.5117 207.582 51.2305 207.246 51.0273C206.91 50.8242 206.504 50.7227 206.027 50.7227C205.551 50.7227 205.145 50.8242 204.809 51.0273C204.48 51.2305 204.211 51.5117 204 51.8711C203.797 52.2227 203.648 52.6289 203.555 53.0898C203.461 53.543 203.414 54.0273 203.414 54.543Z" fill="#888888"/>
<path d="M109.219 107.422H100.734V101.07H109.219C110.375 101.07 111.312 100.875 112.031 100.484C112.75 100.094 113.273 99.5547 113.602 98.8672C113.945 98.1641 114.117 97.375 114.117 96.5C114.117 95.5625 113.945 94.6953 113.602 93.8984C113.273 93.1016 112.75 92.4609 112.031 91.9766C111.312 91.4766 110.375 91.2266 109.219 91.2266H103.828V119H95.6016V84.875H109.219C111.953 84.875 114.305 85.375 116.273 86.375C118.258 87.375 119.781 88.75 120.844 90.5C121.906 92.2344 122.438 94.2188 122.438 96.4531C122.438 98.6562 121.906 100.578 120.844 102.219C119.781 103.859 118.258 105.141 116.273 106.062C114.305 106.969 111.953 107.422 109.219 107.422ZM134.461 99.9219V119H126.562V93.6406H133.945L134.461 99.9219ZM141.961 93.4531L141.82 100.789C141.508 100.758 141.086 100.719 140.555 100.672C140.023 100.625 139.578 100.602 139.219 100.602C138.297 100.602 137.5 100.711 136.828 100.93C136.172 101.133 135.625 101.445 135.188 101.867C134.766 102.273 134.453 102.789 134.25 103.414C134.062 104.039 133.977 104.766 133.992 105.594L132.562 104.656C132.562 102.953 132.727 101.406 133.055 100.016C133.398 98.6094 133.883 97.3984 134.508 96.3828C135.133 95.3516 135.891 94.5625 136.781 94.0156C137.672 93.4531 138.672 93.1719 139.781 93.1719C140.172 93.1719 140.555 93.1953 140.93 93.2422C141.32 93.2891 141.664 93.3594 141.961 93.4531ZM142.852 106.578V106.086C142.852 104.227 143.117 102.516 143.648 100.953C144.18 99.375 144.961 98.0078 145.992 96.8516C147.023 95.6953 148.297 94.7969 149.812 94.1562C151.328 93.5 153.078 93.1719 155.062 93.1719C157.062 93.1719 158.82 93.5 160.336 94.1562C161.867 94.7969 163.148 95.6953 164.18 96.8516C165.211 98.0078 165.992 99.375 166.523 100.953C167.055 102.516 167.32 104.227 167.32 106.086V106.578C167.32 108.422 167.055 110.133 166.523 111.711C165.992 113.273 165.211 114.641 164.18 115.812C163.148 116.969 161.875 117.867 160.359 118.508C158.844 119.148 157.094 119.469 155.109 119.469C153.125 119.469 151.367 119.148 149.836 118.508C148.305 117.867 147.023 116.969 145.992 115.812C144.961 114.641 144.18 113.273 143.648 111.711C143.117 110.133 142.852 108.422 142.852 106.578ZM150.75 106.086V106.578C150.75 107.531 150.82 108.422 150.961 109.25C151.102 110.078 151.336 110.805 151.664 111.43C151.992 112.039 152.438 112.516 153 112.859C153.562 113.203 154.266 113.375 155.109 113.375C155.938 113.375 156.625 113.203 157.172 112.859C157.734 112.516 158.18 112.039 158.508 111.43C158.836 110.805 159.07 110.078 159.211 109.25C159.352 108.422 159.422 107.531 159.422 106.578V106.086C159.422 105.164 159.352 104.297 159.211 103.484C159.07 102.656 158.836 101.93 158.508 101.305C158.18 100.664 157.734 100.164 157.172 99.8047C156.609 99.4453 155.906 99.2656 155.062 99.2656C154.234 99.2656 153.539 99.4453 152.977 99.8047C152.43 100.164 151.992 100.664 151.664 101.305C151.336 101.93 151.102 102.656 150.961 103.484C150.82 104.297 150.75 105.164 150.75 106.086ZM171.422 93.6406H179.344V119.82C179.344 121.852 178.953 123.562 178.172 124.953C177.391 126.359 176.273 127.422 174.82 128.141C173.367 128.875 171.633 129.242 169.617 129.242C168.945 129.242 168.328 129.211 167.766 129.148C167.188 129.102 166.555 129 165.867 128.844V122.867C166.273 122.93 166.648 122.977 166.992 123.008C167.336 123.055 167.711 123.078 168.117 123.078C168.836 123.078 169.438 122.961 169.922 122.727C170.406 122.492 170.773 122.133 171.023 121.648C171.289 121.164 171.422 120.555 171.422 119.82V93.6406ZM170.836 87.1016C170.836 85.9766 171.242 85.0547 172.055 84.3359C172.867 83.6172 173.922 83.2578 175.219 83.2578C176.516 83.2578 177.57 83.6172 178.383 84.3359C179.195 85.0547 179.602 85.9766 179.602 87.1016C179.602 88.2266 179.195 89.1484 178.383 89.8672C177.57 90.5859 176.516 90.9453 175.219 90.9453C173.922 90.9453 172.867 90.5859 172.055 89.8672C171.242 89.1484 170.836 88.2266 170.836 87.1016ZM196.102 119.469C194.039 119.469 192.195 119.148 190.57 118.508C188.945 117.852 187.57 116.953 186.445 115.812C185.336 114.672 184.484 113.359 183.891 111.875C183.312 110.391 183.023 108.82 183.023 107.164V106.273C183.023 104.414 183.281 102.695 183.797 101.117C184.312 99.5234 185.078 98.1328 186.094 96.9453C187.109 95.7578 188.383 94.8359 189.914 94.1797C191.445 93.5078 193.227 93.1719 195.258 93.1719C197.055 93.1719 198.664 93.4609 200.086 94.0391C201.508 94.6172 202.711 95.4453 203.695 96.5234C204.695 97.6016 205.453 98.9062 205.969 100.438C206.5 101.969 206.766 103.688 206.766 105.594V108.805H186.047V103.859H199.055V103.25C199.07 102.406 198.922 101.688 198.609 101.094C198.312 100.5 197.875 100.047 197.297 99.7344C196.719 99.4219 196.016 99.2656 195.188 99.2656C194.328 99.2656 193.617 99.4531 193.055 99.8281C192.508 100.203 192.078 100.719 191.766 101.375C191.469 102.016 191.258 102.758 191.133 103.602C191.008 104.445 190.945 105.336 190.945 106.273V107.164C190.945 108.102 191.07 108.953 191.32 109.719C191.586 110.484 191.961 111.141 192.445 111.688C192.945 112.219 193.539 112.633 194.227 112.93C194.93 113.227 195.727 113.375 196.617 113.375C197.695 113.375 198.758 113.172 199.805 112.766C200.852 112.359 201.75 111.688 202.5 110.75L206.086 115.016C205.57 115.75 204.836 116.461 203.883 117.148C202.945 117.836 201.82 118.398 200.508 118.836C199.195 119.258 197.727 119.469 196.102 119.469ZM220.688 113.375C221.422 113.375 222.047 113.242 222.562 112.977C223.094 112.695 223.492 112.305 223.758 111.805C224.039 111.289 224.172 110.672 224.156 109.953H231.586C231.602 111.859 231.133 113.531 230.18 114.969C229.242 116.391 227.961 117.5 226.336 118.297C224.727 119.078 222.906 119.469 220.875 119.469C218.891 119.469 217.156 119.148 215.672 118.508C214.188 117.852 212.945 116.945 211.945 115.789C210.961 114.617 210.219 113.25 209.719 111.688C209.234 110.125 208.992 108.43 208.992 106.602V106.062C208.992 104.234 209.234 102.539 209.719 100.977C210.219 99.3984 210.961 98.0312 211.945 96.875C212.945 95.7031 214.18 94.7969 215.648 94.1562C217.133 93.5 218.859 93.1719 220.828 93.1719C222.938 93.1719 224.797 93.5703 226.406 94.3672C228.031 95.1641 229.305 96.3203 230.227 97.8359C231.148 99.3516 231.602 101.188 231.586 103.344H224.156C224.172 102.578 224.055 101.891 223.805 101.281C223.555 100.672 223.164 100.188 222.633 99.8281C222.117 99.4531 221.453 99.2656 220.641 99.2656C219.828 99.2656 219.172 99.4453 218.672 99.8047C218.172 100.164 217.789 100.664 217.523 101.305C217.273 101.93 217.102 102.648 217.008 103.461C216.93 104.273 216.891 105.141 216.891 106.062V106.602C216.891 107.539 216.93 108.422 217.008 109.25C217.102 110.062 217.281 110.781 217.547 111.406C217.812 112.016 218.195 112.5 218.695 112.859C219.195 113.203 219.859 113.375 220.688 113.375ZM248.32 93.6406V99.125H233.039V93.6406H248.32ZM236.25 87.3359H244.148V110.727C244.148 111.398 244.227 111.922 244.383 112.297C244.539 112.656 244.805 112.914 245.18 113.07C245.57 113.211 246.086 113.281 246.727 113.281C247.18 113.281 247.555 113.273 247.852 113.258C248.148 113.227 248.43 113.188 248.695 113.141V118.789C248.023 119.008 247.32 119.172 246.586 119.281C245.852 119.406 245.07 119.469 244.242 119.469C242.555 119.469 241.109 119.203 239.906 118.672C238.719 118.141 237.812 117.305 237.188 116.164C236.562 115.023 236.25 113.539 236.25 111.711V87.3359ZM277.406 107.422H268.922V101.07H277.406C278.562 101.07 279.5 100.875 280.219 100.484C280.938 100.094 281.461 99.5547 281.789 98.8672C282.133 98.1641 282.305 97.375 282.305 96.5C282.305 95.5625 282.133 94.6953 281.789 93.8984C281.461 93.1016 280.938 92.4609 280.219 91.9766C279.5 91.4766 278.562 91.2266 277.406 91.2266H272.016V119H263.789V84.875H277.406C280.141 84.875 282.492 85.375 284.461 86.375C286.445 87.375 287.969 88.75 289.031 90.5C290.094 92.2344 290.625 94.2188 290.625 96.4531C290.625 98.6562 290.094 100.578 289.031 102.219C287.969 103.859 286.445 105.141 284.461 106.062C282.492 106.969 280.141 107.422 277.406 107.422ZM302.414 83V119H294.516V83H302.414ZM301.477 105.453L299.625 105.5C299.625 103.719 299.844 102.078 300.281 100.578C300.719 99.0781 301.344 97.7734 302.156 96.6641C302.969 95.5547 303.945 94.6953 305.086 94.0859C306.227 93.4766 307.492 93.1719 308.883 93.1719C310.133 93.1719 311.273 93.3516 312.305 93.7109C313.352 94.0703 314.25 94.6484 315 95.4453C315.766 96.2422 316.352 97.2812 316.758 98.5625C317.18 99.8438 317.391 101.406 317.391 103.25V119H309.445V103.203C309.445 102.172 309.297 101.375 309 100.812C308.719 100.234 308.312 99.8359 307.781 99.6172C307.25 99.3828 306.602 99.2656 305.836 99.2656C304.914 99.2656 304.164 99.4219 303.586 99.7344C303.008 100.047 302.562 100.484 302.25 101.047C301.953 101.594 301.75 102.242 301.641 102.992C301.531 103.742 301.477 104.562 301.477 105.453ZM330.117 93.6406V119H322.195V93.6406H330.117ZM321.727 87.1016C321.727 85.9766 322.133 85.0547 322.945 84.3359C323.758 83.6172 324.812 83.2578 326.109 83.2578C327.406 83.2578 328.461 83.6172 329.273 84.3359C330.086 85.0547 330.492 85.9766 330.492 87.1016C330.492 88.2266 330.086 89.1484 329.273 89.8672C328.461 90.5859 327.406 90.9453 326.109 90.9453C324.812 90.9453 323.758 90.5859 322.945 89.8672C322.133 89.1484 321.727 88.2266 321.727 87.1016ZM343.336 83V119H335.414V83H343.336ZM347.227 106.578V106.086C347.227 104.227 347.492 102.516 348.023 100.953C348.555 99.375 349.336 98.0078 350.367 96.8516C351.398 95.6953 352.672 94.7969 354.188 94.1562C355.703 93.5 357.453 93.1719 359.438 93.1719C361.438 93.1719 363.195 93.5 364.711 94.1562C366.242 94.7969 367.523 95.6953 368.555 96.8516C369.586 98.0078 370.367 99.375 370.898 100.953C371.43 102.516 371.695 104.227 371.695 106.086V106.578C371.695 108.422 371.43 110.133 370.898 111.711C370.367 113.273 369.586 114.641 368.555 115.812C367.523 116.969 366.25 117.867 364.734 118.508C363.219 119.148 361.469 119.469 359.484 119.469C357.5 119.469 355.742 119.148 354.211 118.508C352.68 117.867 351.398 116.969 350.367 115.812C349.336 114.641 348.555 113.273 348.023 111.711C347.492 110.133 347.227 108.422 347.227 106.578ZM355.125 106.086V106.578C355.125 107.531 355.195 108.422 355.336 109.25C355.477 110.078 355.711 110.805 356.039 111.43C356.367 112.039 356.812 112.516 357.375 112.859C357.938 113.203 358.641 113.375 359.484 113.375C360.312 113.375 361 113.203 361.547 112.859C362.109 112.516 362.555 112.039 362.883 111.43C363.211 110.805 363.445 110.078 363.586 109.25C363.727 108.422 363.797 107.531 363.797 106.578V106.086C363.797 105.164 363.727 104.297 363.586 103.484C363.445 102.656 363.211 101.93 362.883 101.305C362.555 100.664 362.109 100.164 361.547 99.8047C360.984 99.4453 360.281 99.2656 359.438 99.2656C358.609 99.2656 357.914 99.4453 357.352 99.8047C356.805 100.164 356.367 100.664 356.039 101.305C355.711 101.93 355.477 102.656 355.336 103.484C355.195 104.297 355.125 105.164 355.125 106.086ZM388.5 111.875C388.5 111.438 388.352 111.062 388.055 110.75C387.773 110.422 387.273 110.125 386.555 109.859C385.836 109.578 384.828 109.297 383.531 109.016C382.297 108.75 381.133 108.398 380.039 107.961C378.961 107.523 378.016 106.992 377.203 106.367C376.391 105.742 375.75 105 375.281 104.141C374.828 103.281 374.602 102.297 374.602 101.188C374.602 100.109 374.828 99.0938 375.281 98.1406C375.75 97.1719 376.43 96.3203 377.32 95.5859C378.227 94.8359 379.328 94.25 380.625 93.8281C381.922 93.3906 383.398 93.1719 385.055 93.1719C387.336 93.1719 389.305 93.5234 390.961 94.2266C392.617 94.9141 393.891 95.8828 394.781 97.1328C395.688 98.3672 396.141 99.7969 396.141 101.422H388.242C388.242 100.781 388.133 100.234 387.914 99.7812C387.711 99.3281 387.375 98.9844 386.906 98.75C386.438 98.5 385.812 98.375 385.031 98.375C384.484 98.375 383.984 98.4766 383.531 98.6797C383.094 98.8828 382.742 99.1641 382.477 99.5234C382.211 99.8828 382.078 100.305 382.078 100.789C382.078 101.133 382.156 101.445 382.312 101.727C382.484 101.992 382.742 102.242 383.086 102.477C383.43 102.695 383.867 102.898 384.398 103.086C384.93 103.258 385.57 103.414 386.32 103.555C388.023 103.867 389.617 104.312 391.102 104.891C392.586 105.469 393.789 106.289 394.711 107.352C395.648 108.414 396.117 109.844 396.117 111.641C396.117 112.766 395.859 113.805 395.344 114.758C394.828 115.695 394.086 116.523 393.117 117.242C392.148 117.945 390.984 118.492 389.625 118.883C388.266 119.273 386.734 119.469 385.031 119.469C382.609 119.469 380.562 119.039 378.891 118.18C377.219 117.305 375.953 116.211 375.094 114.898C374.25 113.57 373.828 112.227 373.828 110.867H381.188C381.219 111.648 381.406 112.289 381.75 112.789C382.109 113.289 382.586 113.656 383.18 113.891C383.773 114.125 384.461 114.242 385.242 114.242C385.961 114.242 386.555 114.141 387.023 113.938C387.508 113.734 387.875 113.461 388.125 113.117C388.375 112.758 388.5 112.344 388.5 111.875ZM398.836 106.578V106.086C398.836 104.227 399.102 102.516 399.633 100.953C400.164 99.375 400.945 98.0078 401.977 96.8516C403.008 95.6953 404.281 94.7969 405.797 94.1562C407.312 93.5 409.062 93.1719 411.047 93.1719C413.047 93.1719 414.805 93.5 416.32 94.1562C417.852 94.7969 419.133 95.6953 420.164 96.8516C421.195 98.0078 421.977 99.375 422.508 100.953C423.039 102.516 423.305 104.227 423.305 106.086V106.578C423.305 108.422 423.039 110.133 422.508 111.711C421.977 113.273 421.195 114.641 420.164 115.812C419.133 116.969 417.859 117.867 416.344 118.508C414.828 119.148 413.078 119.469 411.094 119.469C409.109 119.469 407.352 119.148 405.82 118.508C404.289 117.867 403.008 116.969 401.977 115.812C400.945 114.641 400.164 113.273 399.633 111.711C399.102 110.133 398.836 108.422 398.836 106.578ZM406.734 106.086V106.578C406.734 107.531 406.805 108.422 406.945 109.25C407.086 110.078 407.32 110.805 407.648 111.43C407.977 112.039 408.422 112.516 408.984 112.859C409.547 113.203 410.25 113.375 411.094 113.375C411.922 113.375 412.609 113.203 413.156 112.859C413.719 112.516 414.164 112.039 414.492 111.43C414.82 110.805 415.055 110.078 415.195 109.25C415.336 108.422 415.406 107.531 415.406 106.578V106.086C415.406 105.164 415.336 104.297 415.195 103.484C415.055 102.656 414.82 101.93 414.492 101.305C414.164 100.664 413.719 100.164 413.156 99.8047C412.594 99.4453 411.891 99.2656 411.047 99.2656C410.219 99.2656 409.523 99.4453 408.961 99.8047C408.414 100.164 407.977 100.664 407.648 101.305C407.32 101.93 407.086 102.656 406.945 103.484C406.805 104.297 406.734 105.164 406.734 106.086ZM434.789 98.5156V128.75H426.891V93.6406H434.25L434.789 98.5156ZM450.352 106.016V106.508C450.352 108.352 450.141 110.062 449.719 111.641C449.297 113.219 448.672 114.594 447.844 115.766C447.016 116.938 445.984 117.852 444.75 118.508C443.531 119.148 442.117 119.469 440.508 119.469C438.992 119.469 437.688 119.133 436.594 118.461C435.5 117.789 434.586 116.859 433.852 115.672C433.117 114.484 432.523 113.125 432.07 111.594C431.617 110.062 431.258 108.445 430.992 106.742V106.109C431.258 104.281 431.617 102.586 432.07 101.023C432.523 99.4453 433.117 98.0703 433.852 96.8984C434.586 95.7266 435.492 94.8125 436.57 94.1562C437.664 93.5 438.969 93.1719 440.484 93.1719C442.094 93.1719 443.508 93.4766 444.727 94.0859C445.961 94.6953 446.992 95.5703 447.82 96.7109C448.664 97.8359 449.297 99.1875 449.719 100.766C450.141 102.344 450.352 104.094 450.352 106.016ZM442.453 106.508V106.016C442.453 105.031 442.383 104.133 442.242 103.32C442.102 102.492 441.875 101.773 441.562 101.164C441.266 100.555 440.867 100.086 440.367 99.7578C439.867 99.4297 439.25 99.2656 438.516 99.2656C437.672 99.2656 436.961 99.3984 436.383 99.6641C435.82 99.9141 435.367 100.305 435.023 100.836C434.695 101.352 434.461 102 434.32 102.781C434.195 103.547 434.141 104.445 434.156 105.477V107.398C434.125 108.586 434.242 109.633 434.508 110.539C434.773 111.43 435.234 112.125 435.891 112.625C436.547 113.125 437.438 113.375 438.562 113.375C439.312 113.375 439.938 113.203 440.438 112.859C440.938 112.5 441.336 112.008 441.633 111.383C441.93 110.742 442.141 110.008 442.266 109.18C442.391 108.352 442.453 107.461 442.453 106.508ZM461.602 83V119H453.703V83H461.602ZM460.664 105.453L458.812 105.5C458.812 103.719 459.031 102.078 459.469 100.578C459.906 99.0781 460.531 97.7734 461.344 96.6641C462.156 95.5547 463.133 94.6953 464.273 94.0859C465.414 93.4766 466.68 93.1719 468.07 93.1719C469.32 93.1719 470.461 93.3516 471.492 93.7109C472.539 94.0703 473.438 94.6484 474.188 95.4453C474.953 96.2422 475.539 97.2812 475.945 98.5625C476.367 99.8438 476.578 101.406 476.578 103.25V119H468.633V103.203C468.633 102.172 468.484 101.375 468.188 100.812C467.906 100.234 467.5 99.8359 466.969 99.6172C466.438 99.3828 465.789 99.2656 465.023 99.2656C464.102 99.2656 463.352 99.4219 462.773 99.7344C462.195 100.047 461.75 100.484 461.438 101.047C461.141 101.594 460.938 102.242 460.828 102.992C460.719 103.742 460.664 104.562 460.664 105.453ZM488.742 116.023L495.305 93.6406H503.789L493.594 122.773C493.375 123.414 493.086 124.102 492.727 124.836C492.367 125.586 491.875 126.297 491.25 126.969C490.625 127.641 489.82 128.188 488.836 128.609C487.867 129.031 486.664 129.242 485.227 129.242C484.461 129.242 483.898 129.203 483.539 129.125C483.195 129.062 482.664 128.945 481.945 128.773V123.125C482.148 123.125 482.32 123.125 482.461 123.125C482.617 123.125 482.789 123.125 482.977 123.125C483.82 123.125 484.492 123.039 484.992 122.867C485.508 122.695 485.898 122.445 486.164 122.117C486.445 121.789 486.664 121.391 486.82 120.922L488.742 116.023ZM487.078 93.6406L492.07 111.383L492.938 119.75H487.641L478.617 93.6406H487.078Z" fill="black"/>
<path d="M1134 0H1348C1356.28 0 1363 6.71573 1363 15V148C1363 156.284 1356.28 163 1348 163H1134V0Z" fill="#974E8A"/>
<path d="M1234.26 103.786H1262.74V109.357H1234.26V103.786ZM1239.96 114.929H1257.04V120.5H1239.96V114.929ZM1248.5 42.5C1240.95 42.5 1233.71 45.4349 1228.37 50.6592C1223.03 55.8834 1220.03 62.969 1220.03 70.3571C1219.84 74.4057 1220.63 78.4412 1222.34 82.1315C1224.05 85.8219 1226.64 89.0616 1229.88 91.5843C1232.73 94.175 1234.26 95.6514 1234.26 98.2143H1239.96C1239.96 93.0886 1236.8 90.2193 1233.72 87.4614C1231.06 85.4676 1228.94 82.8658 1227.55 79.8838C1226.15 76.9019 1225.53 73.6308 1225.72 70.3571C1225.72 64.4466 1228.12 58.7781 1232.39 54.5988C1236.67 50.4194 1242.46 48.0714 1248.5 48.0714C1254.54 48.0714 1260.33 50.4194 1264.61 54.5988C1268.88 58.7781 1271.28 64.4466 1271.28 70.3571C1271.47 73.6333 1270.84 76.9059 1269.44 79.888C1268.04 82.8701 1265.92 85.4706 1263.25 87.4614C1260.2 90.2471 1257.04 93.0329 1257.04 98.2143H1262.74C1262.74 95.6514 1264.25 94.175 1267.12 91.5564C1270.36 89.0381 1272.94 85.8031 1274.66 82.1176C1276.37 78.4321 1277.16 74.4014 1276.97 70.3571C1276.97 66.6989 1276.24 63.0765 1274.81 59.6967C1273.37 56.3169 1271.28 53.2459 1268.63 50.6592C1265.99 48.0724 1262.85 46.0205 1259.4 44.6205C1255.94 43.2205 1252.24 42.5 1248.5 42.5Z" fill="white"/>
</svg>
