<svg width="1363" height="163" viewBox="0 0 1363 163" fill="none" xmlns="http://www.w3.org/2000/svg">
<path d="M0 15C0 6.71573 6.71573 0 15 0H37V163H15C6.71573 163 0 156.284 0 148V15Z" fill="#424242"/>
<rect width="1097" height="163" transform="translate(37)" fill="#F0F0F0"/>
<path d="M101.906 53.9219L94.3945 51.2383V48.0859L104.602 52.375V54.6367L101.906 53.9219ZM94.3945 56.1719L101.918 53.4297L104.602 52.7852V55.0352L94.3945 59.3242V56.1719ZM115.805 56.5352C115.805 56.2305 115.758 55.957 115.664 55.7148C115.578 55.4648 115.414 55.2383 115.172 55.0352C114.93 54.8242 114.59 54.6172 114.152 54.4141C113.715 54.2109 113.148 54 112.453 53.7812C111.68 53.5312 110.945 53.25 110.25 52.9375C109.562 52.625 108.953 52.2617 108.422 51.8477C107.898 51.4258 107.484 50.9375 107.18 50.3828C106.883 49.8281 106.734 49.1836 106.734 48.4492C106.734 47.7383 106.891 47.0938 107.203 46.5156C107.516 45.9297 107.953 45.4297 108.516 45.0156C109.078 44.5938 109.742 44.2695 110.508 44.043C111.281 43.8164 112.129 43.7031 113.051 43.7031C114.309 43.7031 115.406 43.9297 116.344 44.3828C117.281 44.8359 118.008 45.457 118.523 46.2461C119.047 47.0352 119.309 47.9375 119.309 48.9531H115.816C115.816 48.4531 115.711 48.0156 115.5 47.6406C115.297 47.2578 114.984 46.957 114.562 46.7383C114.148 46.5195 113.625 46.4102 112.992 46.4102C112.383 46.4102 111.875 46.5039 111.469 46.6914C111.062 46.8711 110.758 47.1172 110.555 47.4297C110.352 47.7344 110.25 48.0781 110.25 48.4609C110.25 48.75 110.32 49.0117 110.461 49.2461C110.609 49.4805 110.828 49.6992 111.117 49.9023C111.406 50.1055 111.762 50.2969 112.184 50.4766C112.605 50.6562 113.094 50.832 113.648 51.0039C114.578 51.2852 115.395 51.6016 116.098 51.9531C116.809 52.3047 117.402 52.6992 117.879 53.1367C118.355 53.5742 118.715 54.0703 118.957 54.625C119.199 55.1797 119.32 55.8086 119.32 56.5117C119.32 57.2539 119.176 57.918 118.887 58.5039C118.598 59.0898 118.18 59.5859 117.633 59.9922C117.086 60.3984 116.434 60.707 115.676 60.918C114.918 61.1289 114.07 61.2344 113.133 61.2344C112.289 61.2344 111.457 61.125 110.637 60.9062C109.816 60.6797 109.07 60.3398 108.398 59.8867C107.734 59.4336 107.203 58.8555 106.805 58.1523C106.406 57.4492 106.207 56.6172 106.207 55.6562H109.734C109.734 56.1875 109.816 56.6367 109.98 57.0039C110.145 57.3711 110.375 57.668 110.672 57.8945C110.977 58.1211 111.336 58.2852 111.75 58.3867C112.172 58.4883 112.633 58.5391 113.133 58.5391C113.742 58.5391 114.242 58.4531 114.633 58.2812C115.031 58.1094 115.324 57.8711 115.512 57.5664C115.707 57.2617 115.805 56.918 115.805 56.5352ZM124.875 50.9453V61H121.488V48.3203H124.664L124.875 50.9453ZM124.406 54.2148H123.469C123.469 53.332 123.574 52.5195 123.785 51.7773C124.004 51.0273 124.32 50.3789 124.734 49.832C125.156 49.2773 125.676 48.8477 126.293 48.543C126.91 48.2383 127.625 48.0859 128.438 48.0859C129 48.0859 129.516 48.1719 129.984 48.3438C130.453 48.5078 130.855 48.7695 131.191 49.1289C131.535 49.4805 131.801 49.9414 131.988 50.5117C132.176 51.0742 132.27 51.75 132.27 52.5391V61H128.895V52.9141C128.895 52.3359 128.816 51.8906 128.66 51.5781C128.504 51.2656 128.281 51.0469 127.992 50.9219C127.711 50.7969 127.371 50.7344 126.973 50.7344C126.535 50.7344 126.152 50.8242 125.824 51.0039C125.504 51.1836 125.238 51.4336 125.027 51.7539C124.816 52.0664 124.66 52.4336 124.559 52.8555C124.457 53.2773 124.406 53.7305 124.406 54.2148ZM131.953 53.8281L130.746 53.9805C130.746 53.1523 130.848 52.3828 131.051 51.6719C131.262 50.9609 131.57 50.3359 131.977 49.7969C132.391 49.2578 132.902 48.8398 133.512 48.543C134.121 48.2383 134.824 48.0859 135.621 48.0859C136.23 48.0859 136.785 48.1758 137.285 48.3555C137.785 48.5273 138.211 48.8047 138.562 49.1875C138.922 49.5625 139.195 50.0547 139.383 50.6641C139.578 51.2734 139.676 52.0195 139.676 52.9023V61H136.289V52.9023C136.289 52.3164 136.211 51.8711 136.055 51.5664C135.906 51.2539 135.688 51.0391 135.398 50.9219C135.117 50.7969 134.781 50.7344 134.391 50.7344C133.984 50.7344 133.629 50.8164 133.324 50.9805C133.02 51.1367 132.766 51.3555 132.562 51.6367C132.359 51.918 132.207 52.2461 132.105 52.6211C132.004 52.9883 131.953 53.3906 131.953 53.8281ZM149.133 58.1406V52.4922C149.133 52.0859 149.066 51.7383 148.934 51.4492C148.801 51.1523 148.594 50.9219 148.312 50.7578C148.039 50.5938 147.684 50.5117 147.246 50.5117C146.871 50.5117 146.547 50.5781 146.273 50.7109C146 50.8359 145.789 51.0195 145.641 51.2617C145.492 51.4961 145.418 51.7734 145.418 52.0938H142.043C142.043 51.5547 142.168 51.043 142.418 50.5586C142.668 50.0742 143.031 49.6484 143.508 49.2812C143.984 48.9062 144.551 48.6133 145.207 48.4023C145.871 48.1914 146.613 48.0859 147.434 48.0859C148.418 48.0859 149.293 48.25 150.059 48.5781C150.824 48.9062 151.426 49.3984 151.863 50.0547C152.309 50.7109 152.531 51.5312 152.531 52.5156V57.9414C152.531 58.6367 152.574 59.207 152.66 59.6523C152.746 60.0898 152.871 60.4727 153.035 60.8008V61H149.625C149.461 60.6562 149.336 60.2266 149.25 59.7109C149.172 59.1875 149.133 58.6641 149.133 58.1406ZM149.578 53.2773L149.602 55.1875H147.715C147.27 55.1875 146.883 55.2383 146.555 55.3398C146.227 55.4414 145.957 55.5859 145.746 55.7734C145.535 55.9531 145.379 56.1641 145.277 56.4062C145.184 56.6484 145.137 56.9141 145.137 57.2031C145.137 57.4922 145.203 57.7539 145.336 57.9883C145.469 58.2148 145.66 58.3945 145.91 58.5273C146.16 58.6523 146.453 58.7148 146.789 58.7148C147.297 58.7148 147.738 58.6133 148.113 58.4102C148.488 58.207 148.777 57.957 148.98 57.6602C149.191 57.3633 149.301 57.082 149.309 56.8164L150.199 58.2461C150.074 58.5664 149.902 58.8984 149.684 59.2422C149.473 59.5859 149.203 59.9102 148.875 60.2148C148.547 60.5117 148.152 60.7578 147.691 60.9531C147.23 61.1406 146.684 61.2344 146.051 61.2344C145.246 61.2344 144.516 61.0742 143.859 60.7539C143.211 60.4258 142.695 59.9766 142.312 59.4062C141.938 58.8281 141.75 58.1719 141.75 57.4375C141.75 56.7734 141.875 56.1836 142.125 55.668C142.375 55.1523 142.742 54.7188 143.227 54.3672C143.719 54.0078 144.332 53.7383 145.066 53.5586C145.801 53.3711 146.652 53.2773 147.621 53.2773H149.578ZM158.508 51.0859V61H155.133V48.3203H158.309L158.508 51.0859ZM162.328 48.2383L162.27 51.3672C162.105 51.3438 161.906 51.3242 161.672 51.3086C161.445 51.2852 161.238 51.2734 161.051 51.2734C160.574 51.2734 160.16 51.3359 159.809 51.4609C159.465 51.5781 159.176 51.7539 158.941 51.9883C158.715 52.2227 158.543 52.5078 158.426 52.8438C158.316 53.1797 158.254 53.5625 158.238 53.9922L157.559 53.7812C157.559 52.9609 157.641 52.207 157.805 51.5195C157.969 50.8242 158.207 50.2188 158.52 49.7031C158.84 49.1875 159.23 48.7891 159.691 48.5078C160.152 48.2266 160.68 48.0859 161.273 48.0859C161.461 48.0859 161.652 48.1016 161.848 48.1328C162.043 48.1562 162.203 48.1914 162.328 48.2383ZM170.719 48.3203V50.7109H163.336V48.3203H170.719ZM165.164 45.1914H168.539V57.1797C168.539 57.5469 168.586 57.8281 168.68 58.0234C168.781 58.2188 168.93 58.3555 169.125 58.4336C169.32 58.5039 169.566 58.5391 169.863 58.5391C170.074 58.5391 170.262 58.5312 170.426 58.5156C170.598 58.4922 170.742 58.4688 170.859 58.4453L170.871 60.9297C170.582 61.0234 170.27 61.0977 169.934 61.1523C169.598 61.207 169.227 61.2344 168.82 61.2344C168.078 61.2344 167.43 61.1133 166.875 60.8711C166.328 60.6211 165.906 60.2227 165.609 59.6758C165.312 59.1289 165.164 58.4102 165.164 57.5195V45.1914ZM176.203 48.3203V61H172.816V48.3203H176.203ZM172.605 45.0156C172.605 44.5234 172.777 44.1172 173.121 43.7969C173.465 43.4766 173.926 43.3164 174.504 43.3164C175.074 43.3164 175.531 43.4766 175.875 43.7969C176.227 44.1172 176.402 44.5234 176.402 45.0156C176.402 45.5078 176.227 45.9141 175.875 46.2344C175.531 46.5547 175.074 46.7148 174.504 46.7148C173.926 46.7148 173.465 46.5547 173.121 46.2344C172.777 45.9141 172.605 45.5078 172.605 45.0156ZM184.441 61H180.727L180.75 58.2578H184.441C185.363 58.2578 186.141 58.0508 186.773 57.6367C187.406 57.2148 187.883 56.6016 188.203 55.7969C188.531 54.9922 188.695 54.0195 188.695 52.8789V52.0469C188.695 51.1719 188.602 50.4023 188.414 49.7383C188.234 49.0742 187.965 48.5156 187.605 48.0625C187.246 47.6094 186.805 47.2695 186.281 47.043C185.758 46.8086 185.156 46.6914 184.477 46.6914H180.656V43.9375H184.477C185.617 43.9375 186.66 44.1328 187.605 44.5234C188.559 44.9062 189.383 45.457 190.078 46.1758C190.773 46.8945 191.309 47.7539 191.684 48.7539C192.066 49.7461 192.258 50.8516 192.258 52.0703V52.8789C192.258 54.0898 192.066 55.1953 191.684 56.1953C191.309 57.1953 190.773 58.0547 190.078 58.7734C189.391 59.4844 188.566 60.0352 187.605 60.4258C186.652 60.8086 185.598 61 184.441 61ZM182.719 43.9375V61H179.203V43.9375H182.719ZM194.062 54.7891V54.543C194.062 53.6133 194.195 52.7578 194.461 51.9766C194.727 51.1875 195.113 50.5039 195.621 49.9258C196.129 49.3477 196.754 48.8984 197.496 48.5781C198.238 48.25 199.09 48.0859 200.051 48.0859C201.012 48.0859 201.867 48.25 202.617 48.5781C203.367 48.8984 203.996 49.3477 204.504 49.9258C205.02 50.5039 205.41 51.1875 205.676 51.9766C205.941 52.7578 206.074 53.6133 206.074 54.543V54.7891C206.074 55.7109 205.941 56.5664 205.676 57.3555C205.41 58.1367 205.02 58.8203 204.504 59.4062C203.996 59.9844 203.371 60.4336 202.629 60.7539C201.887 61.0742 201.035 61.2344 200.074 61.2344C199.113 61.2344 198.258 61.0742 197.508 60.7539C196.766 60.4336 196.137 59.9844 195.621 59.4062C195.113 58.8203 194.727 58.1367 194.461 57.3555C194.195 56.5664 194.062 55.7109 194.062 54.7891ZM197.438 54.543V54.7891C197.438 55.3203 197.484 55.8164 197.578 56.2773C197.672 56.7383 197.82 57.1445 198.023 57.4961C198.234 57.8398 198.508 58.1094 198.844 58.3047C199.18 58.5 199.59 58.5977 200.074 58.5977C200.543 58.5977 200.945 58.5 201.281 58.3047C201.617 58.1094 201.887 57.8398 202.09 57.4961C202.293 57.1445 202.441 56.7383 202.535 56.2773C202.637 55.8164 202.688 55.3203 202.688 54.7891V54.543C202.688 54.0273 202.637 53.543 202.535 53.0898C202.441 52.6289 202.289 52.2227 202.078 51.8711C201.875 51.5117 201.605 51.2305 201.27 51.0273C200.934 50.8242 200.527 50.7227 200.051 50.7227C199.574 50.7227 199.168 50.8242 198.832 51.0273C198.504 51.2305 198.234 51.5117 198.023 51.8711C197.82 52.2227 197.672 52.6289 197.578 53.0898C197.484 53.543 197.438 54.0273 197.438 54.543Z" fill="#888888"/>
<path d="M118.594 98.4219V104.75H101.086V98.4219H118.594ZM103.828 84.875V119H95.6016V84.875H103.828ZM124.125 84.875V119H115.922V84.875H124.125ZM127.992 106.578V106.086C127.992 104.227 128.258 102.516 128.789 100.953C129.32 99.375 130.102 98.0078 131.133 96.8516C132.164 95.6953 133.438 94.7969 134.953 94.1562C136.469 93.5 138.219 93.1719 140.203 93.1719C142.203 93.1719 143.961 93.5 145.477 94.1562C147.008 94.7969 148.289 95.6953 149.32 96.8516C150.352 98.0078 151.133 99.375 151.664 100.953C152.195 102.516 152.461 104.227 152.461 106.086V106.578C152.461 108.422 152.195 110.133 151.664 111.711C151.133 113.273 150.352 114.641 149.32 115.812C148.289 116.969 147.016 117.867 145.5 118.508C143.984 119.148 142.234 119.469 140.25 119.469C138.266 119.469 136.508 119.148 134.977 118.508C133.445 117.867 132.164 116.969 131.133 115.812C130.102 114.641 129.32 113.273 128.789 111.711C128.258 110.133 127.992 108.422 127.992 106.578ZM135.891 106.086V106.578C135.891 107.531 135.961 108.422 136.102 109.25C136.242 110.078 136.477 110.805 136.805 111.43C137.133 112.039 137.578 112.516 138.141 112.859C138.703 113.203 139.406 113.375 140.25 113.375C141.078 113.375 141.766 113.203 142.312 112.859C142.875 112.516 143.32 112.039 143.648 111.43C143.977 110.805 144.211 110.078 144.352 109.25C144.492 108.422 144.562 107.531 144.562 106.578V106.086C144.562 105.164 144.492 104.297 144.352 103.484C144.211 102.656 143.977 101.93 143.648 101.305C143.32 100.664 142.875 100.164 142.312 99.8047C141.75 99.4453 141.047 99.2656 140.203 99.2656C139.375 99.2656 138.68 99.4453 138.117 99.8047C137.57 100.164 137.133 100.664 136.805 101.305C136.477 101.93 136.242 102.656 136.102 103.484C135.961 104.297 135.891 105.164 135.891 106.086ZM163.688 111.453L168.375 93.6406H173.32L171.562 102.57L166.922 119H162.961L163.688 111.453ZM161.836 93.6406L164.742 111.312L165.07 119H160.266L154.266 93.6406H161.836ZM177.492 110.938L180.422 93.6406H187.992L182.039 119H177.234L177.492 110.938ZM173.883 93.6406L178.617 111.406L179.344 119H175.336L170.789 102.617L169.102 93.6406H173.883ZM218.297 84.875V119H210.07V84.875H218.297ZM228.562 84.875V91.2266H200.039V84.875H228.562ZM225.773 106.578V106.086C225.773 104.227 226.039 102.516 226.57 100.953C227.102 99.375 227.883 98.0078 228.914 96.8516C229.945 95.6953 231.219 94.7969 232.734 94.1562C234.25 93.5 236 93.1719 237.984 93.1719C239.984 93.1719 241.742 93.5 243.258 94.1562C244.789 94.7969 246.07 95.6953 247.102 96.8516C248.133 98.0078 248.914 99.375 249.445 100.953C249.977 102.516 250.242 104.227 250.242 106.086V106.578C250.242 108.422 249.977 110.133 249.445 111.711C248.914 113.273 248.133 114.641 247.102 115.812C246.07 116.969 244.797 117.867 243.281 118.508C241.766 119.148 240.016 119.469 238.031 119.469C236.047 119.469 234.289 119.148 232.758 118.508C231.227 117.867 229.945 116.969 228.914 115.812C227.883 114.641 227.102 113.273 226.57 111.711C226.039 110.133 225.773 108.422 225.773 106.578ZM233.672 106.086V106.578C233.672 107.531 233.742 108.422 233.883 109.25C234.023 110.078 234.258 110.805 234.586 111.43C234.914 112.039 235.359 112.516 235.922 112.859C236.484 113.203 237.188 113.375 238.031 113.375C238.859 113.375 239.547 113.203 240.094 112.859C240.656 112.516 241.102 112.039 241.43 111.43C241.758 110.805 241.992 110.078 242.133 109.25C242.273 108.422 242.344 107.531 242.344 106.578V106.086C242.344 105.164 242.273 104.297 242.133 103.484C241.992 102.656 241.758 101.93 241.43 101.305C241.102 100.664 240.656 100.164 240.094 99.8047C239.531 99.4453 238.828 99.2656 237.984 99.2656C237.156 99.2656 236.461 99.4453 235.898 99.8047C235.352 100.164 234.914 100.664 234.586 101.305C234.258 101.93 234.023 102.656 233.883 103.484C233.742 104.297 233.672 105.164 233.672 106.086ZM266.086 84.875H279.516C282.141 84.875 284.422 85.2656 286.359 86.0469C288.297 86.8281 289.789 87.9844 290.836 89.5156C291.898 91.0469 292.43 92.9375 292.43 95.1875C292.43 97.1406 292.125 98.7734 291.516 100.086C290.906 101.398 290.055 102.484 288.961 103.344C287.883 104.188 286.625 104.883 285.188 105.43L282.492 106.953H271.219L271.172 100.602H279.516C280.562 100.602 281.43 100.414 282.117 100.039C282.805 99.6641 283.32 99.1328 283.664 98.4453C284.023 97.7422 284.203 96.9062 284.203 95.9375C284.203 94.9531 284.023 94.1094 283.664 93.4062C283.305 92.7031 282.773 92.1641 282.07 91.7891C281.383 91.4141 280.531 91.2266 279.516 91.2266H274.312V119H266.086V84.875ZM284.766 119L277.219 103.906L285.938 103.859L293.578 118.648V119H284.766ZM311.836 112.836V93.6406H319.758V119H312.352L311.836 112.836ZM312.586 107.68L314.648 107.633C314.648 109.336 314.445 110.914 314.039 112.367C313.633 113.805 313.031 115.055 312.234 116.117C311.453 117.18 310.484 118.008 309.328 118.602C308.188 119.18 306.867 119.469 305.367 119.469C304.117 119.469 302.969 119.297 301.922 118.953C300.891 118.594 300 118.039 299.25 117.289C298.5 116.523 297.914 115.547 297.492 114.359C297.086 113.156 296.883 111.719 296.883 110.047V93.6406H304.781V110.094C304.781 110.656 304.852 111.141 304.992 111.547C305.133 111.953 305.336 112.297 305.602 112.578C305.867 112.844 306.195 113.047 306.586 113.188C306.992 113.312 307.453 113.375 307.969 113.375C309.156 113.375 310.086 113.125 310.758 112.625C311.43 112.125 311.898 111.445 312.164 110.586C312.445 109.727 312.586 108.758 312.586 107.68ZM331.875 99.0547V119H323.977V93.6406H331.383L331.875 99.0547ZM330.938 105.453L329.086 105.5C329.086 103.562 329.32 101.836 329.789 100.32C330.258 98.7891 330.922 97.4922 331.781 96.4297C332.641 95.3672 333.664 94.5625 334.852 94.0156C336.055 93.4531 337.391 93.1719 338.859 93.1719C340.031 93.1719 341.102 93.3438 342.07 93.6875C343.055 94.0312 343.898 94.5859 344.602 95.3516C345.32 96.1172 345.867 97.1328 346.242 98.3984C346.633 99.6484 346.828 101.195 346.828 103.039V119H338.883V103.016C338.883 102 338.742 101.227 338.461 100.695C338.18 100.148 337.773 99.7734 337.242 99.5703C336.711 99.3672 336.062 99.2656 335.297 99.2656C334.484 99.2656 333.797 99.4219 333.234 99.7344C332.672 100.047 332.219 100.484 331.875 101.047C331.547 101.594 331.305 102.242 331.148 102.992C331.008 103.742 330.938 104.562 330.938 105.453ZM363.773 108.195H357.047C357.047 106.82 357.141 105.609 357.328 104.562C357.531 103.5 357.875 102.547 358.359 101.703C358.844 100.859 359.5 100.078 360.328 99.3594C361.062 98.75 361.695 98.1641 362.227 97.6016C362.758 97.0391 363.164 96.4688 363.445 95.8906C363.727 95.3125 363.867 94.6953 363.867 94.0391C363.867 93.2266 363.75 92.5625 363.516 92.0469C363.297 91.5312 362.961 91.1484 362.508 90.8984C362.07 90.6328 361.516 90.5 360.844 90.5C360.297 90.5 359.781 90.6328 359.297 90.8984C358.828 91.1641 358.445 91.5781 358.148 92.1406C357.852 92.6875 357.688 93.4141 357.656 94.3203H349.711C349.758 91.9922 350.273 90.1016 351.258 88.6484C352.258 87.1797 353.586 86.1094 355.242 85.4375C356.914 84.75 358.781 84.4062 360.844 84.4062C363.125 84.4062 365.086 84.7578 366.727 85.4609C368.367 86.1641 369.625 87.2109 370.5 88.6016C371.375 89.9766 371.812 91.6719 371.812 93.6875C371.812 95.0312 371.555 96.2031 371.039 97.2031C370.539 98.1875 369.859 99.1094 369 99.9688C368.156 100.812 367.211 101.719 366.164 102.688C365.258 103.484 364.641 104.297 364.312 105.125C363.984 105.938 363.805 106.961 363.773 108.195ZM356.086 115.32C356.086 114.195 356.492 113.258 357.305 112.508C358.117 111.742 359.172 111.359 360.469 111.359C361.766 111.359 362.82 111.742 363.633 112.508C364.445 113.258 364.852 114.195 364.852 115.32C364.852 116.445 364.445 117.391 363.633 118.156C362.82 118.906 361.766 119.281 360.469 119.281C359.172 119.281 358.117 118.906 357.305 118.156C356.492 117.391 356.086 116.445 356.086 115.32Z" fill="black"/>
<path d="M1134 0H1348C1356.28 0 1363 6.71573 1363 15V148C1363 156.284 1356.28 163 1348 163H1134V0Z" fill="#974E8A"/>
<path d="M1260.62 78.8078C1263.81 78.8078 1266.93 79.7552 1269.59 81.5302C1272.25 83.3052 1274.32 85.8281 1275.54 88.7798C1276.76 91.7315 1277.08 94.9795 1276.46 98.1131C1275.84 101.247 1274.3 104.125 1272.04 106.384C1269.78 108.643 1266.9 110.182 1263.77 110.805C1260.63 111.428 1257.39 111.108 1254.43 109.886C1251.48 108.663 1248.96 106.593 1247.18 103.936C1245.41 101.28 1244.46 98.1565 1244.46 94.9616C1244.46 90.6774 1246.16 86.5686 1249.19 83.5392C1252.22 80.5097 1256.33 78.8078 1260.62 78.8078ZM1260.62 73.4232C1256.36 73.4232 1252.19 74.6864 1248.65 77.0531C1245.11 79.4198 1242.35 82.7836 1240.72 86.7192C1239.09 90.6549 1238.66 94.9855 1239.49 99.1636C1240.32 103.342 1242.37 107.179 1245.39 110.192C1248.4 113.204 1252.24 115.255 1256.41 116.086C1260.59 116.917 1264.92 116.491 1268.86 114.861C1272.79 113.23 1276.16 110.47 1278.52 106.928C1280.89 103.386 1282.15 99.2215 1282.15 94.9616C1282.15 89.2493 1279.88 83.7709 1275.85 79.7317C1271.81 75.6924 1266.33 73.4232 1260.62 73.4232Z" fill="white"/>
<path d="M1274.08 46.4999H1220.23C1218.8 46.4999 1217.43 47.0672 1216.42 48.0771C1215.41 49.0869 1214.85 50.4565 1214.85 51.8845V105.731C1214.85 107.159 1215.41 108.528 1216.42 109.538C1217.43 110.548 1218.8 111.115 1220.23 111.115H1231V105.731H1220.23V68.0383H1279.46V51.8845C1279.46 50.4565 1278.89 49.0869 1277.88 48.0771C1276.87 47.0672 1275.5 46.4999 1274.08 46.4999ZM1220.23 62.6537V51.8845H1274.08V62.6537H1220.23Z" fill="white"/>
<path d="M1255.23 86.8848V103.039L1268.69 94.9617L1255.23 86.8848Z" fill="white"/>
</svg>
